<?xml version="1.0" encoding="UTF-8" standalone="no"?>
<!DOCTYPE svg PUBLIC "-//W3C//DTD SVG 1.1//EN"
 "http://www.w3.org/Graphics/SVG/1.1/DTD/svg11.dtd">
<!-- Generated by graphviz version 2.47.0 (20210316.0004)
 -->
<!-- Title: dependencies Pages: 1 -->
<svg width="737pt" height="211pt"
 viewBox="0.00 0.00 737.00 211.00" xmlns="http://www.w3.org/2000/svg" xmlns:xlink="http://www.w3.org/1999/xlink">
<g id="graph0" class="graph" transform="scale(1 1) rotate(0) translate(4 207)">
<title>dependencies</title>
<polygon fill="white" stroke="transparent" points="-4,4 -4,-207 733,-207 733,4 -4,4"/>
<text text-anchor="start" x="343.51" y="-42.4" font-family="Times-12" font-weight="bold" font-size="14.00">Legend</text>
<polygon fill="#ffffb3" stroke="transparent" points="130.5,-10 130.5,-30 150.5,-30 150.5,-10 130.5,-10"/>
<text text-anchor="start" x="154.13" y="-15.4" font-family="Times-12" font-size="14.00"> &#160;Declarations</text>
<polygon fill="#8dd3c7" stroke="transparent" points="243.5,-10 243.5,-30 263.5,-30 263.5,-10 243.5,-10"/>
<text text-anchor="start" x="267.23" y="-15.4" font-family="Times-12" font-size="14.00"> &#160;Module</text>
<polygon fill="#80b1d3" stroke="transparent" points="329.5,-10 329.5,-30 349.5,-30 349.5,-10 329.5,-10"/>
<text text-anchor="start" x="353.28" y="-15.4" font-family="Times-12" font-size="14.00"> &#160;Bootstrap</text>
<polygon fill="#fdb462" stroke="transparent" points="426.5,-10 426.5,-30 446.5,-30 446.5,-10 426.5,-10"/>
<text text-anchor="start" x="450.17" y="-15.4" font-family="Times-12" font-size="14.00"> &#160;Providers</text>
<polygon fill="#fb8072" stroke="transparent" points="522.5,-10 522.5,-30 542.5,-30 542.5,-10 522.5,-10"/>
<text text-anchor="start" x="546.23" y="-15.4" font-family="Times-12" font-size="14.00"> &#160;Exports</text>
<g id="clust1" class="cluster">
<title>cluster_CambiarContraModule</title>
<polygon fill="none" stroke="black" stroke-dasharray="1,5" points="8,-70 8,-195 721,-195 721,-70 8,-70"/>
</g>
<g id="clust5" class="cluster">
<title>cluster_CambiarContraModule_imports</title>
<polygon fill="none" stroke="black" points="378,-78 378,-130 713,-130 713,-78 378,-78"/>
</g>
<g id="clust2" class="cluster">
<title>cluster_CambiarContraModule_declarations</title>
<polygon fill="none" stroke="black" points="16,-78 16,-130 370,-130 370,-78 16,-78"/>
</g>
<!-- CambiarContraComponent -->
<g id="node1" class="node">
<title>CambiarContraComponent</title>
<polygon fill="#ffffb3" stroke="black" points="361.64,-122 194.36,-122 194.36,-86 361.64,-86 361.64,-122"/>
<text text-anchor="middle" x="278" y="-99.8" font-family="Times,serif" font-size="14.00">CambiarContraComponent</text>
</g>
<!-- CambiarContraModule -->
<g id="node3" class="node">
<title>CambiarContraModule</title>
<polygon fill="#8dd3c7" stroke="black" points="431.86,-187 428.86,-191 407.86,-191 404.86,-187 286.14,-187 286.14,-151 431.86,-151 431.86,-187"/>
<text text-anchor="middle" x="359" y="-164.8" font-family="Times,serif" font-size="14.00">CambiarContraModule</text>
</g>
<!-- CambiarContraComponent&#45;&gt;CambiarContraModule -->
<g id="edge1" class="edge">
<title>CambiarContraComponent&#45;&gt;CambiarContraModule</title>
<path fill="none" stroke="black" d="M323.95,-122.11C323.95,-122.11 323.95,-140.99 323.95,-140.99"/>
<polygon fill="black" stroke="black" points="320.45,-140.99 323.95,-150.99 327.45,-140.99 320.45,-140.99"/>
</g>
<!-- DialogEnvioComponent -->
<g id="node2" class="node">
<title>DialogEnvioComponent</title>
<polygon fill="#ffffb3" stroke="black" points="176.38,-122 23.62,-122 23.62,-86 176.38,-86 176.38,-122"/>
<text text-anchor="middle" x="100" y="-99.8" font-family="Times,serif" font-size="14.00">DialogEnvioComponent</text>
</g>
<!-- DialogEnvioComponent&#45;&gt;CambiarContraModule -->
<g id="edge2" class="edge">
<title>DialogEnvioComponent&#45;&gt;CambiarContraModule</title>
<path fill="none" stroke="black" d="M100,-122.11C100,-141.34 100,-169 100,-169 100,-169 275.82,-169 275.82,-169"/>
<polygon fill="black" stroke="black" points="275.82,-172.5 285.82,-169 275.82,-165.5 275.82,-172.5"/>
</g>
<!-- CambiarContraRoutingModule -->
<g id="node4" class="node">
<title>CambiarContraRoutingModule</title>
<polygon fill="#8dd3c7" stroke="black" points="705.48,-122 702.48,-126 681.48,-126 678.48,-122 514.52,-122 514.52,-86 705.48,-86 705.48,-122"/>
<text text-anchor="middle" x="610" y="-99.8" font-family="Times,serif" font-size="14.00">CambiarContraRoutingModule</text>
</g>
<!-- CambiarContraRoutingModule&#45;&gt;CambiarContraModule -->
<g id="edge3" class="edge">
<title>CambiarContraRoutingModule&#45;&gt;CambiarContraModule</title>
<path fill="none" stroke="black" d="M610,-122.11C610,-141.34 610,-169 610,-169 610,-169 441.94,-169 441.94,-169"/>
<polygon fill="black" stroke="black" points="441.94,-165.5 431.94,-169 441.94,-172.5 441.94,-165.5"/>
</g>
<!-- PrimeNgModule -->
<g id="node5" class="node">
<title>PrimeNgModule</title>
<polygon fill="#8dd3c7" stroke="black" points="496.1,-122 493.1,-126 472.1,-126 469.1,-122 385.9,-122 385.9,-86 496.1,-86 496.1,-122"/>
<text text-anchor="middle" x="441" y="-99.8" font-family="Times,serif" font-size="14.00">PrimeNgModule</text>
</g>
<!-- PrimeNgModule&#45;&gt;CambiarContraModule -->
<g id="edge4" class="edge">
<title>PrimeNgModule&#45;&gt;CambiarContraModule</title>
<path fill="none" stroke="black" d="M408.94,-122.11C408.94,-122.11 408.94,-140.99 408.94,-140.99"/>
<polygon fill="black" stroke="black" points="405.44,-140.99 408.94,-150.99 412.44,-140.99 405.44,-140.99"/>
</g>
</g>
</svg>
