<?xml version="1.0" encoding="UTF-8" standalone="no"?>
<!DOCTYPE svg PUBLIC "-//W3C//DTD SVG 1.1//EN"
 "http://www.w3.org/Graphics/SVG/1.1/DTD/svg11.dtd">
<!-- Generated by graphviz version 2.47.0 (20210316.0004)
 -->
<!-- Title: dependencies Pages: 1 -->
<svg width="1664pt" height="211pt"
 viewBox="0.00 0.00 1664.00 211.00" xmlns="http://www.w3.org/2000/svg" xmlns:xlink="http://www.w3.org/1999/xlink">
<g id="graph0" class="graph" transform="scale(1 1) rotate(0) translate(4 207)">
<title>dependencies</title>
<polygon fill="white" stroke="transparent" points="-4,4 -4,-207 1660,-207 1660,4 -4,4"/>
<text text-anchor="start" x="807.01" y="-42.4" font-family="Times-12" font-weight="bold" font-size="14.00">Legend</text>
<polygon fill="#ffffb3" stroke="transparent" points="594,-10 594,-30 614,-30 614,-10 594,-10"/>
<text text-anchor="start" x="617.63" y="-15.4" font-family="Times-12" font-size="14.00"> &#160;Declarations</text>
<polygon fill="#8dd3c7" stroke="transparent" points="707,-10 707,-30 727,-30 727,-10 707,-10"/>
<text text-anchor="start" x="730.73" y="-15.4" font-family="Times-12" font-size="14.00"> &#160;Module</text>
<polygon fill="#80b1d3" stroke="transparent" points="793,-10 793,-30 813,-30 813,-10 793,-10"/>
<text text-anchor="start" x="816.78" y="-15.4" font-family="Times-12" font-size="14.00"> &#160;Bootstrap</text>
<polygon fill="#fdb462" stroke="transparent" points="890,-10 890,-30 910,-30 910,-10 890,-10"/>
<text text-anchor="start" x="913.67" y="-15.4" font-family="Times-12" font-size="14.00"> &#160;Providers</text>
<polygon fill="#fb8072" stroke="transparent" points="986,-10 986,-30 1006,-30 1006,-10 986,-10"/>
<text text-anchor="start" x="1009.73" y="-15.4" font-family="Times-12" font-size="14.00"> &#160;Exports</text>
<g id="clust1" class="cluster">
<title>cluster_HomeModule</title>
<polygon fill="none" stroke="black" stroke-dasharray="1,5" points="8,-70 8,-195 1648,-195 1648,-70 8,-70"/>
</g>
<g id="clust9" class="cluster">
<title>cluster_HomeModule_imports</title>
<polygon fill="none" stroke="black" points="1242,-78 1242,-130 1640,-130 1640,-78 1242,-78"/>
</g>
<g id="clust12" class="cluster">
<title>cluster_HomeModule_providers</title>
<polygon fill="none" stroke="black" points="1070,-78 1070,-130 1234,-130 1234,-78 1070,-78"/>
</g>
<g id="clust2" class="cluster">
<title>cluster_HomeModule_declarations</title>
<polygon fill="none" stroke="black" points="16,-78 16,-130 1062,-130 1062,-78 16,-78"/>
</g>
<!-- CarritoCompraComponent -->
<g id="node1" class="node">
<title>CarritoCompraComponent</title>
<polygon fill="#ffffb3" stroke="black" points="1054.09,-122 887.91,-122 887.91,-86 1054.09,-86 1054.09,-122"/>
<text text-anchor="middle" x="971" y="-99.8" font-family="Times,serif" font-size="14.00">CarritoCompraComponent</text>
</g>
<!-- HomeModule -->
<g id="node7" class="node">
<title>HomeModule</title>
<polygon fill="#8dd3c7" stroke="black" points="930.76,-187 927.76,-191 906.76,-191 903.76,-187 837.24,-187 837.24,-151 930.76,-151 930.76,-187"/>
<text text-anchor="middle" x="884" y="-164.8" font-family="Times,serif" font-size="14.00">HomeModule</text>
</g>
<!-- CarritoCompraComponent&#45;&gt;HomeModule -->
<g id="edge1" class="edge">
<title>CarritoCompraComponent&#45;&gt;HomeModule</title>
<path fill="none" stroke="black" d="M909.42,-122.11C909.42,-122.11 909.42,-140.99 909.42,-140.99"/>
<polygon fill="black" stroke="black" points="905.92,-140.99 909.42,-150.99 912.92,-140.99 905.92,-140.99"/>
</g>
<!-- CarritoItemComponent -->
<g id="node2" class="node">
<title>CarritoItemComponent</title>
<polygon fill="#ffffb3" stroke="black" points="870.14,-122 723.86,-122 723.86,-86 870.14,-86 870.14,-122"/>
<text text-anchor="middle" x="797" y="-99.8" font-family="Times,serif" font-size="14.00">CarritoItemComponent</text>
</g>
<!-- CarritoItemComponent&#45;&gt;HomeModule -->
<g id="edge2" class="edge">
<title>CarritoItemComponent&#45;&gt;HomeModule</title>
<path fill="none" stroke="black" d="M853.72,-122.11C853.72,-122.11 853.72,-140.99 853.72,-140.99"/>
<polygon fill="black" stroke="black" points="850.22,-140.99 853.72,-150.99 857.22,-140.99 850.22,-140.99"/>
</g>
<!-- CompraEntradasComponent -->
<g id="node3" class="node">
<title>CompraEntradasComponent</title>
<polygon fill="#ffffb3" stroke="black" points="705.91,-122 530.09,-122 530.09,-86 705.91,-86 705.91,-122"/>
<text text-anchor="middle" x="618" y="-99.8" font-family="Times,serif" font-size="14.00">CompraEntradasComponent</text>
</g>
<!-- CompraEntradasComponent&#45;&gt;HomeModule -->
<g id="edge3" class="edge">
<title>CompraEntradasComponent&#45;&gt;HomeModule</title>
<path fill="none" stroke="black" d="M618,-122.01C618,-138.05 618,-159 618,-159 618,-159 827.06,-159 827.06,-159"/>
<polygon fill="black" stroke="black" points="827.06,-162.5 837.06,-159 827.06,-155.5 827.06,-162.5"/>
</g>
<!-- EventoComponent -->
<g id="node4" class="node">
<title>EventoComponent</title>
<polygon fill="#ffffb3" stroke="black" points="512.49,-122 391.51,-122 391.51,-86 512.49,-86 512.49,-122"/>
<text text-anchor="middle" x="452" y="-99.8" font-family="Times,serif" font-size="14.00">EventoComponent</text>
</g>
<!-- EventoComponent&#45;&gt;HomeModule -->
<g id="edge4" class="edge">
<title>EventoComponent&#45;&gt;HomeModule</title>
<path fill="none" stroke="black" d="M452,-122.27C452,-140.56 452,-166 452,-166 452,-166 826.95,-166 826.95,-166"/>
<polygon fill="black" stroke="black" points="826.95,-169.5 836.95,-166 826.95,-162.5 826.95,-169.5"/>
</g>
<!-- InicioComponent -->
<g id="node5" class="node">
<title>InicioComponent</title>
<polygon fill="#ffffb3" stroke="black" points="373.99,-122 260.01,-122 260.01,-86 373.99,-86 373.99,-122"/>
<text text-anchor="middle" x="317" y="-99.8" font-family="Times,serif" font-size="14.00">InicioComponent</text>
</g>
<!-- InicioComponent&#45;&gt;HomeModule -->
<g id="edge5" class="edge">
<title>InicioComponent&#45;&gt;HomeModule</title>
<path fill="none" stroke="black" d="M317,-122.13C317,-142.57 317,-173 317,-173 317,-173 827.12,-173 827.12,-173"/>
<polygon fill="black" stroke="black" points="827.12,-176.5 837.12,-173 827.12,-169.5 827.12,-176.5"/>
</g>
<!-- ResumenCarritoCompraComponent -->
<g id="node6" class="node">
<title>ResumenCarritoCompraComponent</title>
<polygon fill="#ffffb3" stroke="black" points="242.19,-122 23.81,-122 23.81,-86 242.19,-86 242.19,-122"/>
<text text-anchor="middle" x="133" y="-99.8" font-family="Times,serif" font-size="14.00">ResumenCarritoCompraComponent</text>
</g>
<!-- ResumenCarritoCompraComponent&#45;&gt;HomeModule -->
<g id="edge6" class="edge">
<title>ResumenCarritoCompraComponent&#45;&gt;HomeModule</title>
<path fill="none" stroke="black" d="M133,-122.01C133,-144.49 133,-180 133,-180 133,-180 827.02,-180 827.02,-180"/>
<polygon fill="black" stroke="black" points="827.02,-183.5 837.02,-180 827.02,-176.5 827.02,-183.5"/>
</g>
<!-- HomeRoutingModule -->
<g id="node8" class="node">
<title>HomeRoutingModule</title>
<polygon fill="#8dd3c7" stroke="black" points="1632.38,-122 1629.38,-126 1608.38,-126 1605.38,-122 1493.62,-122 1493.62,-86 1632.38,-86 1632.38,-122"/>
<text text-anchor="middle" x="1563" y="-99.8" font-family="Times,serif" font-size="14.00">HomeRoutingModule</text>
</g>
<!-- HomeRoutingModule&#45;&gt;HomeModule -->
<g id="edge7" class="edge">
<title>HomeRoutingModule&#45;&gt;HomeModule</title>
<path fill="none" stroke="black" d="M1563,-122.01C1563,-144.49 1563,-180 1563,-180 1563,-180 940.94,-180 940.94,-180"/>
<polygon fill="black" stroke="black" points="940.94,-176.5 930.94,-180 940.94,-183.5 940.94,-176.5"/>
</g>
<!-- PrimeNgModule -->
<g id="node9" class="node">
<title>PrimeNgModule</title>
<polygon fill="#8dd3c7" stroke="black" points="1476.1,-122 1473.1,-126 1452.1,-126 1449.1,-122 1365.9,-122 1365.9,-86 1476.1,-86 1476.1,-122"/>
<text text-anchor="middle" x="1421" y="-99.8" font-family="Times,serif" font-size="14.00">PrimeNgModule</text>
</g>
<!-- PrimeNgModule&#45;&gt;HomeModule -->
<g id="edge8" class="edge">
<title>PrimeNgModule&#45;&gt;HomeModule</title>
<path fill="none" stroke="black" d="M1421,-122.13C1421,-142.57 1421,-173 1421,-173 1421,-173 941.18,-173 941.18,-173"/>
<polygon fill="black" stroke="black" points="941.18,-169.5 931.18,-173 941.18,-176.5 941.18,-169.5"/>
</g>
<!-- SharedModule -->
<g id="node10" class="node">
<title>SharedModule</title>
<polygon fill="#8dd3c7" stroke="black" points="1348.42,-122 1345.42,-126 1324.42,-126 1321.42,-122 1249.58,-122 1249.58,-86 1348.42,-86 1348.42,-122"/>
<text text-anchor="middle" x="1299" y="-99.8" font-family="Times,serif" font-size="14.00">SharedModule</text>
</g>
<!-- SharedModule&#45;&gt;HomeModule -->
<g id="edge9" class="edge">
<title>SharedModule&#45;&gt;HomeModule</title>
<path fill="none" stroke="black" d="M1299,-122.27C1299,-140.56 1299,-166 1299,-166 1299,-166 940.8,-166 940.8,-166"/>
<polygon fill="black" stroke="black" points="940.8,-162.5 930.8,-166 940.8,-169.5 940.8,-162.5"/>
</g>
<!-- MessageService -->
<g id="node11" class="node">
<title>MessageService</title>
<ellipse fill="#fdb462" stroke="black" cx="1152" cy="-104" rx="73.55" ry="18"/>
<text text-anchor="middle" x="1152" y="-99.8" font-family="Times,serif" font-size="14.00">MessageService</text>
</g>
<!-- MessageService&#45;&gt;HomeModule -->
<g id="edge10" class="edge">
<title>MessageService&#45;&gt;HomeModule</title>
<path fill="none" stroke="black" d="M1152,-122.01C1152,-138.05 1152,-159 1152,-159 1152,-159 940.99,-159 940.99,-159"/>
<polygon fill="black" stroke="black" points="940.99,-155.5 930.99,-159 940.99,-162.5 940.99,-155.5"/>
</g>
</g>
</svg>
